<?xml version="1.0" encoding="UTF-8" standalone="no"?>
<!DOCTYPE svg PUBLIC "-//W3C//DTD SVG 1.1//EN"
 "http://www.w3.org/Graphics/SVG/1.1/DTD/svg11.dtd">
<!-- Generated by graphviz version 2.40.1 (20161225.0304)
 -->
<!-- Title: %3 Pages: 1 -->
<svg width="580pt" height="355pt"
 viewBox="0.00 0.00 580.00 355.00" xmlns="http://www.w3.org/2000/svg" xmlns:xlink="http://www.w3.org/1999/xlink">
<g id="graph0" class="graph" transform="scale(1 1) rotate(0) translate(4 351)">
<title>%3</title>
<polygon fill="#333333" stroke="transparent" points="-4,4 -4,-351 576,-351 576,4 -4,4"/>
<text text-anchor="middle" x="286" y="-9.2" font-family="Times,serif" font-size="16.00" fill="#ffffff">Network Map</text>
<!-- R2 -->
<g id="node1" class="node">
<title>R2</title>
<polygon fill="#006699" stroke="#006699" points="96.5,-223 19.5,-223 19.5,-150 96.5,-150 96.5,-223"/>
<text text-anchor="middle" x="58" y="-182.8" font-family="Helvetica,sans-Serif" font-size="14.00" fill="#ffffff">R2</text>
</g>
<!-- SW2 -->
<g id="node5" class="node">
<title>SW2</title>
<polygon fill="#006699" stroke="#006699" points="103.5,-347 12.5,-347 12.5,-274 103.5,-274 103.5,-347"/>
<text text-anchor="middle" x="58" y="-306.8" font-family="Helvetica,sans-Serif" font-size="14.00" fill="#ffffff">SW2</text>
</g>
<!-- R2&#45;&#45;SW2 -->
<g id="edge5" class="edge">
<title>R2&#45;&#45;SW2</title>
<path fill="none" stroke="#00ff00" stroke-dasharray="5,2" d="M58,-223.0334C58,-239.0358 58,-257.7778 58,-273.7992"/>
<text text-anchor="middle" x="108" y="-244.8" font-family="Courier,monospace" font-size="14.00" fill="#ffffff"> &#160;&#160;&#160;&#160;&#160;&#160;&#160;&#160;&#160;&#160;&#160;</text>
<text text-anchor="middle" x="29" y="-262.5992" font-family="Courier,monospace" font-size="14.00" fill="#ffffff">Eth0/11</text>
<text text-anchor="middle" x="33" y="-226.8334" font-family="Courier,monospace" font-size="14.00" fill="#ffffff">Eth0/1</text>
</g>
<!-- R5 -->
<g id="node2" class="node">
<title>R5</title>
<polygon fill="#006699" stroke="#006699" points="403.5,-347 326.5,-347 326.5,-274 403.5,-274 403.5,-347"/>
<text text-anchor="middle" x="365" y="-306.8" font-family="Helvetica,sans-Serif" font-size="14.00" fill="#ffffff">R5</text>
</g>
<!-- R4 -->
<g id="node3" class="node">
<title>R4</title>
<polygon fill="#006699" stroke="#006699" points="526.5,-347 449.5,-347 449.5,-274 526.5,-274 526.5,-347"/>
<text text-anchor="middle" x="488" y="-306.8" font-family="Helvetica,sans-Serif" font-size="14.00" fill="#ffffff">R4</text>
</g>
<!-- R6 -->
<g id="node4" class="node">
<title>R6</title>
<polygon fill="#006699" stroke="#006699" points="219.5,-223 142.5,-223 142.5,-150 219.5,-150 219.5,-223"/>
<text text-anchor="middle" x="181" y="-182.8" font-family="Helvetica,sans-Serif" font-size="14.00" fill="#ffffff">R6</text>
</g>
<!-- R1 -->
<g id="node6" class="node">
<title>R1</title>
<polygon fill="#006699" stroke="#006699" points="342.5,-223 265.5,-223 265.5,-150 342.5,-150 342.5,-223"/>
<text text-anchor="middle" x="304" y="-182.8" font-family="Helvetica,sans-Serif" font-size="14.00" fill="#ffffff">R1</text>
</g>
<!-- R3 -->
<g id="node7" class="node">
<title>R3</title>
<polygon fill="#006699" stroke="#006699" points="465.5,-223 388.5,-223 388.5,-150 465.5,-150 465.5,-223"/>
<text text-anchor="middle" x="427" y="-182.8" font-family="Helvetica,sans-Serif" font-size="14.00" fill="#ffffff">R3</text>
</g>
<!-- R3&#45;&#45;R5 -->
<g id="edge7" class="edge">
<title>R3&#45;&#45;R5</title>
<path fill="none" stroke="#00ff00" stroke-dasharray="5,2" d="M388.203,-209.8263C377.7339,-218.2302 367.7281,-228.722 362,-241 357.3024,-251.0691 356.3686,-262.877 357.1002,-273.8735"/>
<text text-anchor="middle" x="412" y="-244.8" font-family="Courier,monospace" font-size="14.00" fill="#ffffff"> &#160;&#160;&#160;&#160;&#160;&#160;&#160;&#160;&#160;&#160;&#160;</text>
<text text-anchor="middle" x="332.1002" y="-262.6735" font-family="Courier,monospace" font-size="14.00" fill="#ffffff">Eth0/0</text>
<text text-anchor="middle" x="363.203" y="-213.6263" font-family="Courier,monospace" font-size="14.00" fill="#ffffff">Eth0/2</text>
</g>
<!-- R3&#45;&#45;R4 -->
<g id="edge6" class="edge">
<title>R3&#45;&#45;R4</title>
<path fill="none" stroke="#00ff00" stroke-dasharray="5,2" d="M455.4834,-223.0442C459.328,-228.8668 462.9809,-234.9648 466,-241 471.1526,-251.3001 475.4219,-263.0594 478.7848,-273.9389"/>
<text text-anchor="middle" x="522" y="-244.8" font-family="Courier,monospace" font-size="14.00" fill="#ffffff"> &#160;&#160;&#160;&#160;&#160;&#160;&#160;&#160;&#160;&#160;&#160;</text>
<text text-anchor="middle" x="453.7848" y="-262.7389" font-family="Courier,monospace" font-size="14.00" fill="#ffffff">Eth0/0</text>
<text text-anchor="middle" x="430.4834" y="-226.8442" font-family="Courier,monospace" font-size="14.00" fill="#ffffff">Eth0/1</text>
</g>
<!-- SW1 -->
<g id="node8" class="node">
<title>SW1</title>
<polygon fill="#006699" stroke="#006699" points="287.5,-99 196.5,-99 196.5,-26 287.5,-26 287.5,-99"/>
<text text-anchor="middle" x="242" y="-58.8" font-family="Helvetica,sans-Serif" font-size="14.00" fill="#ffffff">SW1</text>
</g>
<!-- SW1&#45;&#45;R2 -->
<g id="edge2" class="edge">
<title>SW1&#45;&#45;R2</title>
<path fill="none" stroke="#00ff00" stroke-dasharray="5,2" d="M196.2446,-72.0198C152.438,-82.0409 90.6229,-98.8565 74,-117 65.8031,-125.9467 61.5372,-138.2285 59.3939,-149.9809"/>
<text text-anchor="middle" x="124" y="-120.8" font-family="Courier,monospace" font-size="14.00" fill="#ffffff"> &#160;&#160;&#160;&#160;&#160;&#160;&#160;&#160;&#160;&#160;&#160;</text>
<text text-anchor="middle" x="34.3939" y="-138.7809" font-family="Courier,monospace" font-size="14.00" fill="#ffffff">Eth0/0</text>
<text text-anchor="middle" x="171.2446" y="-60.8198" font-family="Courier,monospace" font-size="14.00" fill="#ffffff">Eth0/2</text>
</g>
<!-- SW1&#45;&#45;R6 -->
<g id="edge4" class="edge">
<title>SW1&#45;&#45;R6</title>
<path fill="none" stroke="#00ff00" stroke-dasharray="5,2" d="M196.45,-95.888C190.6137,-102.2215 185.4729,-109.3038 182,-117 177.4337,-127.1193 176.0203,-138.9413 176.0833,-149.9353"/>
<text text-anchor="middle" x="232" y="-120.8" font-family="Courier,monospace" font-size="14.00" fill="#ffffff"> &#160;&#160;&#160;&#160;&#160;&#160;&#160;&#160;&#160;&#160;&#160;</text>
<text text-anchor="middle" x="151.0833" y="-138.7353" font-family="Courier,monospace" font-size="14.00" fill="#ffffff">Eth0/1</text>
<text text-anchor="middle" x="171.45" y="-84.688" font-family="Courier,monospace" font-size="14.00" fill="#ffffff">Eth0/5</text>
</g>
<!-- SW1&#45;&#45;R1 -->
<g id="edge1" class="edge">
<title>SW1&#45;&#45;R1</title>
<path fill="none" stroke="#00ff00" stroke-dasharray="5,2" d="M271.4432,-99.2843C275.3079,-105.0244 278.9711,-111.035 282,-117 287.2144,-127.269 291.5016,-139.0192 294.8619,-149.9001"/>
<text text-anchor="middle" x="339" y="-120.8" font-family="Courier,monospace" font-size="14.00" fill="#ffffff"> &#160;&#160;&#160;&#160;&#160;&#160;&#160;&#160;&#160;&#160;&#160;</text>
<text text-anchor="middle" x="269.8619" y="-138.7001" font-family="Courier,monospace" font-size="14.00" fill="#ffffff">Eth0/0</text>
<text text-anchor="middle" x="246.4432" y="-103.0843" font-family="Courier,monospace" font-size="14.00" fill="#ffffff">Eth0/1</text>
</g>
<!-- SW1&#45;&#45;R3 -->
<g id="edge3" class="edge">
<title>SW1&#45;&#45;R3</title>
<path fill="none" stroke="#00ff00" stroke-dasharray="5,2" d="M287.6354,-69.5769C320.3009,-76.6972 363.5378,-90.5755 393,-117 402.7997,-125.7893 410.079,-138.0342 415.3316,-149.801"/>
<text text-anchor="middle" x="455" y="-120.8" font-family="Courier,monospace" font-size="14.00" fill="#ffffff"> &#160;&#160;&#160;&#160;&#160;&#160;&#160;&#160;&#160;&#160;&#160;</text>
<text text-anchor="middle" x="390.3316" y="-138.601" font-family="Courier,monospace" font-size="14.00" fill="#ffffff">Eth0/0</text>
<text text-anchor="middle" x="312.6354" y="-58.3769" font-family="Courier,monospace" font-size="14.00" fill="#ffffff">Eth0/3</text>
</g>
</g>
</svg>
